<svg version="1.1" id="Layer_1" xmlns:x="ns_extend;" xmlns:i="ns_ai;" xmlns:graph="ns_graphs;" xmlns="http://www.w3.org/2000/svg" xmlns:xlink="http://www.w3.org/1999/xlink" x="0px" y="0px" viewBox="0 0 221.9 50" style="enable-background:new 0 0 221.9 50;" xml:space="preserve">
 <metadata>
  <sfw xmlns="ns_sfw;">
   <slices>
   </slices>
   <sliceSourceBounds bottomLeftOrigin="true" height="50" width="221.9" x="4215.6" y="-52.1">
   </sliceSourceBounds>
  </sfw>
 </metadata>
 <path d="M111.2,12.5c-8.6,0-14.8,5.6-14.8,14.1s7,14.1,15.6,14.1c5.2,0,9.8-2.1,12.6-5.5l-6-3.5c-1.6,1.7-4,2.7-6.7,2.7
	c-3.7,0-6.9-2-8.1-5.1h21.9c0.2-0.9,0.3-1.8,0.3-2.7C126,18.1,119.8,12.5,111.2,12.5z M103.8,23.8c1-3.1,3.6-5.1,7.4-5.1
	c3.7,0,6.4,2,7.4,5.1H103.8z M102,3.9L80.4,41.4L58.7,3.9h8.1l13.5,23.4L93.9,3.9H102z M28.9,0l28.9,50H0L28.9,0z M157.4,26.6
	c0,4.7,3.1,7.8,7.8,7.8c3.2,0,5.6-1.5,6.9-3.8l6,3.5c-2.5,4.1-7.1,6.6-12.9,6.6c-8.6,0-14.8-5.6-14.8-14.1s6.2-14.1,14.8-14.1
	c5.7,0,10.4,2.5,12.9,6.6l-6,3.5c-1.2-2.4-3.7-3.8-6.9-3.8C160.5,18.8,157.4,21.9,157.4,26.6z M221.9,3.9v35.9h-7V3.9H221.9z
	 M195.3,12.5c-8.6,0-14.8,5.6-14.8,14.1s7,14.1,15.6,14.1c5.2,0,9.8-2.1,12.6-5.5l-6-3.5c-1.6,1.7-4,2.7-6.7,2.7
	c-3.7,0-6.9-2-8.1-5.1h21.9c0.2-0.9,0.3-1.8,0.3-2.7C210.2,18.1,203.9,12.5,195.3,12.5z M187.9,23.8c1-3.1,3.6-5.1,7.4-5.1
	s6.4,2,7.4,5.1H187.9z M148.1,13.3v7.6c-0.8-0.2-1.6-0.4-2.5-0.4c-4.5,0-7.8,3.1-7.8,7.8v11.6h-7V13.3h7v7.2
	C137.8,16.5,142.4,13.3,148.1,13.3z">
 </path>
</svg>