<svg data-v-fde0c5aa="" xmlns="http://www.w3.org/2000/svg" viewBox="0 0 300 300" class="iconLeft"><!----><defs data-v-fde0c5aa=""><!----></defs><rect data-v-fde0c5aa="" fill="transparent" x="0" y="0" width="300px" height="300px" class="logo-background-square"></rect><defs data-v-fde0c5aa=""><!----></defs><g data-v-fde0c5aa="" id="950aa6bc-dbf6-45f6-87b5-8e804b110258" fill="#000000" transform="matrix(2.5781542841512937,0,0,2.5781542841512937,89.73869731979616,126.22941804104337)"><path d="M7.83 10.57C7.81 8.48 6.29 6.99 4.16 6.99C2.03 6.99 0.48 8.48 0.48 10.56C0.48 12.63 2.03 14.13 4.16 14.13C5.85 14.13 7.32 13.03 7.71 11.51L6.26 11.51C5.99 12.33 5.15 12.95 4.17 12.95C2.98 12.95 2.07 12.15 1.89 11.00L7.78 11.00C7.81 10.86 7.83 10.71 7.83 10.57ZM4.17 8.16C5.31 8.16 6.22 8.88 6.45 9.90L1.93 9.90C2.18 8.86 3.05 8.16 4.17 8.16ZM9.17 4.31L9.17 14L10.60 14L10.60 4.31ZM19.31 10.57C19.29 8.48 17.77 6.99 15.64 6.99C13.51 6.99 11.96 8.48 11.96 10.56C11.96 12.63 13.51 14.13 15.64 14.13C17.33 14.13 18.80 13.03 19.19 11.51L17.74 11.51C17.47 12.33 16.63 12.95 15.65 12.95C14.46 12.95 13.55 12.15 13.37 11.00L19.26 11.00C19.29 10.86 19.31 10.71 19.31 10.57ZM15.65 8.16C16.79 8.16 17.70 8.88 17.93 9.90L13.41 9.90C13.66 8.86 14.53 8.16 15.65 8.16ZM28.35 6.99C27.34 6.99 26.54 7.48 26.15 8.27C25.79 7.46 25.05 6.99 24.08 6.99C23.21 6.99 22.48 7.36 22.08 8.04L22.08 7.11L20.65 7.11L20.65 14L22.08 14L22.08 9.67C22.08 8.74 22.64 8.13 23.53 8.13C24.44 8.13 24.98 8.74 24.98 9.67L24.98 14L26.42 14L26.42 9.67C26.42 8.74 26.98 8.13 27.87 8.13C28.77 8.13 29.32 8.74 29.32 9.67L29.32 14L30.74 14L30.74 9.49C30.74 7.98 29.76 6.99 28.35 6.99ZM39.38 10.57C39.37 8.48 37.84 6.99 35.71 6.99C33.59 6.99 32.03 8.48 32.03 10.56C32.03 12.63 33.59 14.13 35.71 14.13C37.41 14.13 38.88 13.03 39.27 11.51L37.81 11.51C37.55 12.33 36.71 12.95 35.73 12.95C34.54 12.95 33.63 12.15 33.45 11.00L39.34 11.00C39.37 10.86 39.38 10.71 39.38 10.57ZM35.73 8.16C36.86 8.16 37.77 8.88 38.01 9.90L33.49 9.90C33.74 8.86 34.61 8.16 35.73 8.16ZM44.32 6.99C43.37 6.99 42.60 7.41 42.15 8.15L42.15 7.11L40.73 7.11L40.73 14L42.15 14L42.15 9.97C42.15 8.86 42.84 8.13 43.90 8.13C44.94 8.13 45.61 8.86 45.61 9.97L45.61 14L47.05 14L47.05 9.77C47.05 8.11 45.91 6.99 44.32 6.99ZM52.39 7.11L50.83 7.11L50.83 5.33L49.39 5.33L49.39 7.11L48.12 7.11L48.12 8.32L49.39 8.32L49.39 14L50.83 14L50.83 8.32L52.39 8.32ZM58.83 7.11L58.83 8.11C58.23 7.41 57.34 6.99 56.32 6.99C54.38 6.99 52.95 8.48 52.95 10.56C52.95 12.63 54.38 14.13 56.32 14.13C57.34 14.13 58.23 13.71 58.83 13.01L58.83 14L60.26 14L60.26 7.11ZM56.62 12.88C55.34 12.88 54.42 11.91 54.42 10.56C54.42 9.21 55.34 8.23 56.62 8.23C57.90 8.23 58.83 9.21 58.83 10.56C58.83 11.91 57.90 12.88 56.62 12.88ZM63.45 8.72L63.45 7.11L62.02 7.11L62.02 14L63.45 14L63.45 10.60C63.45 9.18 64.44 8.34 66.04 8.34L66.04 6.93C64.82 6.93 63.91 7.59 63.45 8.72Z"></path></g><defs data-v-fde0c5aa=""><linearGradient data-v-fde0c5aa="" gradientTransform="rotate(25)" id="b86e465b-121e-4370-9469-5b4930c4d47a" x1="0%" y1="0%" x2="100%" y2="0%"><stop data-v-fde0c5aa="" offset="0%" stop-color="#51A4FB" stop-opacity="1"></stop><stop data-v-fde0c5aa="" offset="100%" stop-color="#51A4FB" stop-opacity="1"></stop></linearGradient></defs><g data-v-fde0c5aa="" id="f20d8f93-4128-4369-a824-85156cf5beeb" stroke="none" fill="url(#b86e465b-121e-4370-9469-5b4930c4d47a)" transform="matrix(1.1867566070425994,0,0,1.1867566070425994,40,131.0118942873184)"><path d="M16 32c8.837 0 16-7.163 16-16S24.837 0 16 0 0 7.163 0 16s7.163 16 16 16zM8.858 6.858h2v14.283h14.283v2H8.858V6.858z"></path></g><!----></svg>